<svg id="Capa_1" enable-background="new 0 0 512.125 512.125" height="512" viewBox="0 0 512.125 512.125" width="512" xmlns="http://www.w3.org/2000/svg"><g><path d="m391.778 417.029c2.551 0 5.004.416 7.301 1.173 1.011-11.692 10.817-20.868 22.771-20.868 11.856 0 21.603 9.024 22.749 20.578 2.509-1.615 5.487-2.562 8.692-2.562 8.89 0 16.097 7.207 16.097 16.097 8.89 0 16.097 7.207 16.097 16.097s-7.207 16.097-16.097 16.097h-77.61c-12.871 0-23.305-10.434-23.305-23.305s10.434-23.307 23.305-23.307z" fill="#b0ef9a"/><g><path d="m381.723 456.334c0-12.871 10.434-23.305 23.305-23.305 2.551 0 5.004.416 7.301 1.173 1.011-11.692 10.817-20.868 22.771-20.868 3.218 0 6.271.684 9.048 1.884-2.276-10.229-11.384-17.884-22.298-17.884-11.954 0-21.76 9.176-22.771 20.868-2.297-.758-4.75-1.173-7.301-1.173-12.871 0-23.305 10.434-23.305 23.305 0 9.509 5.698 17.683 13.864 21.307-.397-1.705-.614-3.48-.614-5.307z" fill="#9be27d"/></g><path d="m411.603 88.11v375.53l-7.79 5h-290.75l-8.041-5v-375.53z" fill="#eaf6ff"/><path d="m429.478 88.113h-17.875l-6.04 5h-294.5l-6.04-5h-17.876c-3.866 0-7-3.134-7-7v-26.986c0-3.866 3.134-7 7-7h342.331c3.866 0 7 3.134 7 7v26.985c0 3.867-3.134 7.001-7 7.001z" fill="#8ac9fe"/><path d="m124.847 417.029c-2.551 0-5.004.416-7.301 1.173-1.011-11.692-10.817-20.868-22.771-20.868-11.856 0-21.603 9.024-22.749 20.578-2.509-1.615-5.487-2.562-8.692-2.562-8.89 0-16.097 7.207-16.097 16.097-8.89 0-16.097 7.207-16.097 16.097s7.207 16.097 16.097 16.097h77.61c12.871 0 23.305-10.434 23.305-23.305s-10.434-23.307-23.305-23.307z" fill="#b0ef9a"/><g><path d="m134.902 456.334c0-12.871-10.434-23.305-23.305-23.305-2.551 0-5.004.416-7.301 1.173-1.011-11.692-10.817-20.868-22.771-20.868-3.218 0-6.271.684-9.048 1.884 2.276-10.229 11.384-17.884 22.298-17.884 11.954 0 21.76 9.176 22.771 20.868 2.297-.758 4.75-1.173 7.301-1.173 12.871 0 23.305 10.434 23.305 23.305 0 9.509-5.698 17.683-13.864 21.307.397-1.705.614-3.48.614-5.307z" fill="#9be27d"/></g><path d="m318.813 88.113v-.003h-121v.003h-42.79v-.003h-50v375.53h50v-332.64c0-11.046 8.954-20 20-20h22.79v6.17c0 6.257 5.073 11.33 11.33 11.33h98.34c6.257 0 11.33-5.073 11.33-11.33v-6.17h92.787v-22.887z" fill="#d8ecfe"/><path d="m310.619 463.64h-104.613v-97.613c0-3.866 3.134-7 7-7h90.613c3.866 0 7 3.134 7 7z" fill="#8ac9fe"/><path d="m480.313 504.625h-448.5c-3.866 0-7-3.134-7-7v-17.735c0-8.975 7.275-16.25 16.25-16.25h430c8.975 0 16.25 7.275 16.25 16.25v17.735c0 3.866-3.135 7-7 7z" fill="#fedba6"/><path d="m74.813 497.625v-17.735c0-8.975 7.275-16.25 16.25-16.25h-50c-8.975 0-16.25 7.275-16.25 16.25v17.735c0 3.866 3.134 7 7 7h50c-3.866 0-7-3.134-7-7z" fill="#fece85"/><path d="m130.147 81.113v-26.986c0-3.866 3.134-7 7-7h-50c-3.866 0-7 3.134-7 7v26.985c0 3.866 3.134 7 7 7h50c-3.866.001-7-3.133-7-6.999z" fill="#60b7ff"/><path d="m300.332 117.139h-84.04c-3.866 0-7-3.134-7-7v-95.639c0-3.866 3.134-7 7-7h84.04c3.866 0 7 3.134 7 7v95.639c0 3.866-3.134 7-7 7z" fill="#fff0ad"/><path d="m209.293 14.5v95.639c0 3.866 3.134 7 7 7h43v-109.639h-43c-3.866 0-7 3.134-7 7z" fill="#ffde89"/><path d="m375.875 190.407h-34v-30.741c0-3.866 3.134-7 7-7h20c3.866 0 7 3.134 7 7z" fill="#8ac9fe"/><path d="m368.875 221.167h-20c-3.866 0-7-3.134-7-7v-23.759h34v23.759c0 3.866-3.134 7-7 7z" fill="#eaf6ff"/><path d="m308.833 190.407h-34v-30.741c0-3.866 3.134-7 7-7h20c3.866 0 7 3.134 7 7z" fill="#8ac9fe"/><path d="m301.833 221.167h-20c-3.866 0-7-3.134-7-7v-23.759h34v23.759c0 3.866-3.134 7-7 7z" fill="#eaf6ff"/><path d="m241.792 190.407h-34v-30.741c0-3.866 3.134-7 7-7h20c3.866 0 7 3.134 7 7z" fill="#8ac9fe"/><path d="m234.792 221.167h-20c-3.866 0-7-3.134-7-7v-23.759h34v23.759c0 3.866-3.134 7-7 7z" fill="#eaf6ff"/><path d="m174.75 190.407h-34v-30.741c0-3.866 3.134-7 7-7h20c3.866 0 7 3.134 7 7z" fill="#8ac9fe"/><path d="m167.75 221.167h-20c-3.866 0-7-3.134-7-7v-23.759h34v23.759c0 3.866-3.134 7-7 7z" fill="#eaf6ff"/><path d="m375.875 292.074h-34v-30.741c0-3.866 3.134-7 7-7h20c3.866 0 7 3.134 7 7z" fill="#8ac9fe"/><path d="m368.875 322.833h-20c-3.866 0-7-3.134-7-7v-23.759h34v23.759c0 3.866-3.134 7-7 7z" fill="#eaf6ff"/><path d="m308.833 292.074h-34v-30.741c0-3.866 3.134-7 7-7h20c3.866 0 7 3.134 7 7z" fill="#8ac9fe"/><path d="m301.833 322.833h-20c-3.866 0-7-3.134-7-7v-23.759h34v23.759c0 3.866-3.134 7-7 7z" fill="#eaf6ff"/><path d="m241.792 292.074h-34v-30.741c0-3.866 3.134-7 7-7h20c3.866 0 7 3.134 7 7z" fill="#8ac9fe"/><path d="m234.792 322.833h-20c-3.866 0-7-3.134-7-7v-23.759h34v23.759c0 3.866-3.134 7-7 7z" fill="#eaf6ff"/><path d="m174.75 292.074h-34v-30.741c0-3.866 3.134-7 7-7h20c3.866 0 7 3.134 7 7z" fill="#8ac9fe"/><path d="m167.75 322.833h-20c-3.866 0-7-3.134-7-7v-23.759h34v23.759c0 3.866-3.134 7-7 7z" fill="#eaf6ff"/><g><path d="m487.442 462.716c3.454-4.106 5.541-9.399 5.541-15.173 0-10.733-7.199-19.816-17.021-22.67-2.853-9.821-11.936-17.021-22.669-17.021-1.196 0-2.384.091-3.554.269-4.673-10.867-15.433-18.289-27.886-18.289-.927 0-1.843.053-2.753.134v-135.54c0-4.143-3.358-7.5-7.5-7.5s-7.5 3.357-7.5 7.5v201.714h-85.98v-89.613h14.193c4.142 0 7.5-3.357 7.5-7.5s-3.358-7.5-7.5-7.5h-21.693-104.614-21.693c-4.142 0-7.5 3.357-7.5 7.5s3.358 7.5 7.5 7.5h14.193v89.613h-85.98v-107.439c0-4.143-3.358-7.5-7.5-7.5s-7.5 3.357-7.5 7.5v41.265c-.91-.081-1.827-.134-2.753-.134-12.454 0-23.213 7.422-27.886 18.289-1.17-.178-2.357-.269-3.554-.269-10.733 0-19.816 7.199-22.669 17.021-9.821 2.854-17.021 11.937-17.021 22.67 0 4.75 1.415 9.174 3.839 12.88-6.141 4.298-10.169 11.418-10.169 19.466v24.735c0 4.143 3.358 7.5 7.5 7.5h113.465c4.142 0 7.5-3.357 7.5-7.5s-3.358-7.5-7.5-7.5h-105.965v-17.234c0-4.825 3.925-8.75 8.75-8.75h6.055c.039 0 .077.003.115.003h57.79c.02 0 .038-.003.058-.003h100.925 104.613 100.925c.02 0 .038.003.058.003h57.79c.039 0 .077-.003.115-.003h1.555c4.825 0 8.75 3.925 8.75 8.75v17.235h-308.848c-4.142 0-7.5 3.357-7.5 7.5s3.358 7.5 7.5 7.5h316.349c4.142 0 7.5-3.357 7.5-7.5v-24.735c0-6.75-2.835-12.846-7.371-17.174zm-440.21-23.774c4.142 0 7.5-3.357 7.5-7.5 0-4.736 3.858-8.59 8.6-8.59 1.667 0 3.223.458 4.624 1.362 2.196 1.415 4.97 1.589 7.323.453 2.354-1.135 3.947-3.413 4.206-6.013.785-7.881 7.357-13.823 15.287-13.823.938 0 1.853.106 2.753.268v51.039h-50.35c-4.71-.031-8.532-3.874-8.532-8.597 0-4.74 3.853-8.599 8.589-8.599zm166.274-72.416h37.307v89.613h-37.307zm52.307 89.614v-89.613h37.307v89.613zm153.286-51.04c.9-.162 1.815-.268 2.753-.268 7.93 0 14.502 5.942 15.287 13.823.259 2.6 1.852 4.878 4.206 6.013 2.353 1.135 5.128.962 7.323-.453 1.401-.904 2.957-1.362 4.624-1.362 4.742 0 8.6 3.854 8.6 8.59 0 4.143 3.358 7.5 7.5 7.5 4.736 0 8.59 3.858 8.59 8.601 0 4.723-3.823 8.565-8.532 8.597h-50.351z"/><path d="m307.333 0h-98.04c-4.142 0-7.5 3.357-7.5 7.5v32.122h-114.65c-7.995 0-14.5 6.505-14.5 14.5v26.99c0 7.995 6.505 14.5 14.5 14.5h10.38v220.4c0 4.143 3.358 7.5 7.5 7.5s7.5-3.357 7.5-7.5v-220.4h89.27v21.526c0 4.143 3.358 7.5 7.5 7.5h98.04c4.142 0 7.5-3.357 7.5-7.5v-21.526h89.27v126.13c0 4.143 3.358 7.5 7.5 7.5s7.5-3.357 7.5-7.5v-126.13h10.38c7.995 0 14.5-6.505 14.5-14.5v-26.99c0-7.995-6.505-14.5-14.5-14.5h-114.65v-32.122c0-4.143-3.358-7.5-7.5-7.5zm-202.311 80.612h-17.38v-25.99h114.15v25.99zm194.811 29.027h-83.04v-94.639h83.04zm129.149-55.017v25.99h-17.38-96.77v-25.99z"/><path d="m277.104 31.375c-4.142 0-7.5 3.357-7.5 7.5v15.944h-22.583v-15.944c0-4.143-3.358-7.5-7.5-7.5s-7.5 3.357-7.5 7.5v51.371c0 4.143 3.358 7.5 7.5 7.5s7.5-3.357 7.5-7.5v-20.427h22.583v20.427c0 4.143 3.358 7.5 7.5 7.5s7.5-3.357 7.5-7.5v-51.371c0-4.143-3.358-7.5-7.5-7.5z"/><path d="m383.375 152.667c0-4.143-3.358-7.5-7.5-7.5h-34c-4.142 0-7.5 3.357-7.5 7.5v68.5c0 4.143 3.358 7.5 7.5 7.5h34c4.142 0 7.5-3.357 7.5-7.5zm-15 7.5v22.74h-19v-22.74zm-19 53.5v-15.76h19v15.76z"/><path d="m316.333 152.667c0-4.143-3.358-7.5-7.5-7.5h-34c-4.142 0-7.5 3.357-7.5 7.5v68.5c0 4.143 3.358 7.5 7.5 7.5h34c4.142 0 7.5-3.357 7.5-7.5zm-15 7.5v22.74h-19v-22.74zm-19 53.5v-15.76h19v15.76z"/><path d="m249.292 152.667c0-4.143-3.358-7.5-7.5-7.5h-34c-4.142 0-7.5 3.357-7.5 7.5v68.5c0 4.143 3.358 7.5 7.5 7.5h34c4.142 0 7.5-3.357 7.5-7.5zm-15 7.5v22.74h-19v-22.74zm-19 53.5v-15.76h19v15.76z"/><path d="m182.25 152.667c0-4.143-3.358-7.5-7.5-7.5h-34c-4.142 0-7.5 3.357-7.5 7.5v68.5c0 4.143 3.358 7.5 7.5 7.5h34c4.142 0 7.5-3.357 7.5-7.5zm-15 7.5v22.74h-19v-22.74zm-19 53.5v-15.76h19v15.76z"/><path d="m375.875 246.833h-34c-4.142 0-7.5 3.357-7.5 7.5v68.5c0 4.143 3.358 7.5 7.5 7.5h34c4.142 0 7.5-3.357 7.5-7.5v-68.5c0-4.143-3.358-7.5-7.5-7.5zm-7.5 15v22.741h-19v-22.741zm-19 53.5v-15.759h19v15.759z"/><path d="m308.833 246.833h-34c-4.142 0-7.5 3.357-7.5 7.5v68.5c0 4.143 3.358 7.5 7.5 7.5h34c4.142 0 7.5-3.357 7.5-7.5v-68.5c0-4.143-3.357-7.5-7.5-7.5zm-7.5 15v22.741h-19v-22.741zm-19 53.5v-15.759h19v15.759z"/><path d="m241.792 246.833h-34c-4.142 0-7.5 3.357-7.5 7.5v68.5c0 4.143 3.358 7.5 7.5 7.5h34c4.142 0 7.5-3.357 7.5-7.5v-68.5c0-4.143-3.358-7.5-7.5-7.5zm-7.5 15v22.741h-19v-22.741zm-19 53.5v-15.759h19v15.759z"/><path d="m174.75 246.833h-34c-4.142 0-7.5 3.357-7.5 7.5v68.5c0 4.143 3.358 7.5 7.5 7.5h34c4.142 0 7.5-3.357 7.5-7.5v-68.5c0-4.143-3.358-7.5-7.5-7.5zm-7.5 15v22.741h-19v-22.741zm-19 53.5v-15.759h19v15.759z"/></g></g></svg>