<svg height="387.632pt" viewBox="0 0 387.632 387.632" width="387.632pt" xmlns="http://www.w3.org/2000/svg"><path d="m193.816406 382.632812c-104.113281 0-188.816406-84.703124-188.816406-188.816406 0-104.113281 84.703125-188.816406 188.816406-188.816406 50.433594 0 97.847656 19.640625 133.511719 55.300781l-21.210937 21.214844c-30-29.996094-69.882813-46.515625-112.300782-46.515625-87.574218 0-158.816406 71.242188-158.816406 158.816406 0 87.570313 71.242188 158.816406 158.816406 158.816406 87.570313 0 158.816406-71.246093 158.816406-158.816406h30c0 104.113282-84.703124 188.816406-188.816406 188.816406zm0 0" fill="#4ea3da"/><path d="m193.816406 352.632812c-85.222656 0-154.960937-67.484374-158.636718-151.816406-.105469 2.320313-.179688 4.652344-.179688 7 0 87.570313 71.242188 158.816406 158.816406 158.816406 87.570313 0 158.816406-71.246093 158.816406-158.816406h29.480469c.339844-4.625.519531-9.289062.519531-14h-30c0 87.570313-71.246093 158.816406-158.816406 158.816406zm0 0" fill="#fff"/><path d="m193.816406 19c47.121094 0 91.601563 17.148438 126.328125 48.484375l7.183594-7.179687c-35.664063-35.664063-83.078125-55.304688-133.511719-55.304688-104.113281 0-188.816406 84.703125-188.816406 188.816406 0 2.34375.058594 4.675782.144531 7 3.695313-100.882812 86.902344-181.816406 188.671875-181.816406zm0 0" fill="#fff"/><path d="m360.816406 114.914062h-87.628906l87.628906-87.628906zm0 0" fill="#4ea3da"/><path d="m273.1875 114.914062h20l67.628906-67.628906v-20zm0 0" fill="#fff"/><path d="m347.632812 188.816406v5c0 84.8125-69.003906 153.816406-153.816406 153.816406s-153.816406-69.003906-153.816406-153.816406 69.003906-153.816406 153.816406-153.816406c39.523438 0 76.742188 14.84375 105.382813 41.828125l-38.085938 38.085937h104.703125v-104.699218l-38.292968 38.292968c-36.203126-34.542968-83.496094-53.507812-133.707032-53.507812-106.871094 0-193.816406 86.945312-193.816406 193.816406s86.945312 193.816406 193.816406 193.816406 193.816406-86.945312 193.816406-193.816406v-5zm8.183594-78.902344h-70.558594l70.558594-70.554687zm-162 267.71875c-101.355468 0-183.816406-82.457031-183.816406-183.816406s82.460938-183.816406 183.816406-183.816406c47.429688 0 92.117188 17.839844 126.394532 50.351562l-14.148438 14.144532c-30.5-28.730469-70.164062-44.496094-112.246094-44.496094-90.328125 0-163.816406 73.488281-163.816406 163.816406s73.488281 163.816406 163.816406 163.816406c88.65625 0 161.089844-70.789062 163.738282-158.816406h20.007812c-2.65625 99.054688-84.058594 178.816406-183.746094 178.816406zm0 0" fill="#122436"/><path d="m162.675781 211.960938c8.542969-9.671876 14.40625-17.617188 17.914063-24.300782 3.726562-7.109375 5.617187-13.894531 5.617187-20.175781 0-11.132813-3.617187-20.160156-10.757812-26.820313-7.003907-6.539062-16.589844-9.851562-28.492188-9.851562-7.808593 0-14.921875 1.769531-21.144531 5.257812-6.320312 3.546876-11.265625 8.511719-14.699219 14.761719-3.367187 6.128907-5.074219 12.984375-5.074219 20.371094v7h23.03125v-7c0-5.761719 1.605469-10.230469 4.910157-13.664063 3.230469-3.355468 7.476562-4.988281 12.980469-4.988281 5.308593 0 9.230468 1.332031 11.988281 4.074219 2.746093 2.730469 4.082031 6.53125 4.082031 11.617188 0 3.304687-.964844 6.84375-2.863281 10.523437-2.160157 4.191406-6.242188 9.753906-12.082031 16.492187l-39.617188 44.9375v16.625h83.207031v-21.664062h-49.519531zm0 0" fill="#ffcc34"/><path d="m111.113281 162.832031c3.433594-6.25 8.378907-11.214843 14.699219-14.761719 6.21875-3.492187 13.332031-5.257812 21.144531-5.257812 11.902344 0 21.488281 3.3125 28.488281 9.851562 5.695313 5.316407 9.113282 12.15625 10.277344 20.347657.3125-1.878907.484375-3.726563.484375-5.527344 0-11.132813-3.617187-20.160156-10.757812-26.820313-7.003907-6.539062-16.589844-9.851562-28.492188-9.851562-7.808593 0-14.921875 1.769531-21.144531 5.257812-6.320312 3.546876-11.265625 8.511719-14.699219 14.761719-3.367187 6.128907-5.074219 12.984375-5.074219 20.371094v7h.277344c.601563-5.492187 2.199219-10.648437 4.796875-15.371094zm0 0" fill="#fff"/><path d="m135.742188 235.15625-10.613282 12h66.542969v-12zm0 0" fill="#fff"/><path d="m160.164062 190.765625c1.898438-3.679687 2.863282-7.21875 2.863282-10.523437 0-2.390626-.308594-4.484376-.90625-6.328126-.472656 1.585938-1.105469 3.203126-1.957032 4.851563-2.160156 4.191406-6.242187 9.753906-12.085937 16.492187l-39.613281 44.9375v12l39.613281-44.9375c5.84375-6.738281 9.921875-12.300781 12.085937-16.492187zm0 0" fill="#fff"/><path d="m264.371094 207.230469v-74.902344h-20.707032l-54.382812 82.300781v14.265625h51.984375v27.925781h23.105469v-27.925781h17.226562v-21.667969h-17.226562zm-23.105469-31.84375v31.84375h-20.871094zm0 0" fill="#ffcc34"/><path d="m246.191406 219.230469v-12h-31.875l-7.867187 12zm0 0" fill="#fff"/><path d="m264.371094 144.328125v-12h-20.707032l-54.382812 82.300781v12l54.382812-82.300781zm0 0" fill="#fff"/><path d="m259.316406 207.230469h22.28125v12h-22.28125zm0 0" fill="#fff"/><g fill="#122436"><path d="m196.671875 261.820312h-93.207031v-23.515624l40.863281-46.351563c6.941406-8.003906 10.03125-12.835937 11.394531-15.480469 1.53125-2.960937 2.304688-5.730468 2.304688-8.230468 0-4.914063-1.488282-6.957032-2.605469-8.066407-1.777344-1.765625-4.546875-2.625-8.464844-2.625-4.128906 0-7.109375 1.097657-9.378906 3.460938-2.394531 2.484375-3.511719 5.726562-3.511719 10.191406v12h-33.03125v-12c0-8.238281 1.914063-15.898437 5.695313-22.777344 3.890625-7.078125 9.484375-12.703125 16.632812-16.714843 6.980469-3.914063 14.917969-5.898438 23.59375-5.898438 13.207031 0 23.941407 3.765625 31.902344 11.195312 8.191406 7.644532 12.347656 17.898438 12.347656 30.476563 0 7.097656-2.085937 14.667969-6.191406 22.5-3.699219 7.042969-9.78125 15.3125-18.597656 25.289063h-.003907l-13.160156 14.882812h43.417969zm-83.207031-10h73.207031v-11.664062h-55.613281l27.871094-31.507812c8.277343-9.367188 13.917968-16.992188 17.230468-23.3125 3.351563-6.382813 5.050782-12.390626 5.050782-17.851563 0-9.691406-3.085938-17.488281-9.171876-23.164063-6.050781-5.644531-14.488281-8.507812-25.082031-8.507812-6.941406 0-13.234375 1.554688-18.699219 4.621094-5.492187 3.082031-9.789062 7.390625-12.765624 12.808594-2.957032 5.382812-4.457032 11.429687-4.457032 17.960937v2h13.03125v-2c0-7.015625 2.125-12.78125 6.308594-17.128906 4.167969-4.328125 9.746094-6.519531 16.582031-6.519531 6.695313 0 11.769531 1.808593 15.511719 5.523437 3.6875 3.667969 5.558594 8.769531 5.558594 15.164063 0 4.113281-1.148438 8.425781-3.417969 12.820312-2.347656 4.546875-6.640625 10.425781-12.75 17.472656l-38.394531 43.550782zm0 0"/><path d="m269.371094 261.820312h-33.105469v-27.925781h-51.984375v-20.765625l56.695312-85.800781h28.394532v74.902344h17.226562v31.664062h-17.226562zm-23.105469-10h13.105469v-27.925781h17.226562v-11.664062h-17.226562v-74.902344h-13.015625l-52.074219 78.804687v7.761719h51.984375zm0-39.589843h-35.128906l35.128906-53.59375zm-16.617187-10h6.617187v-10.09375zm0 0"/><path d="m283.617188 104.011719c-1.140626-1.136719-2.296876-2.25-3.46875-3.339844l6.808593-7.324219c1.261719 1.171875 2.507813 2.371094 3.734375 3.597656zm0 0"/><path d="m198.164062 330.746094-.3125-9.992188c3.195313-.101562 6.421876-.324218 9.585938-.660156l1.0625 9.941406c-3.410156.363282-6.886719.605469-10.335938.710938zm-12.433593-.167969c-3.441407-.199219-6.914063-.535156-10.320313-.992187l1.339844-9.910157c3.15625.425781 6.375.734375 9.5625.921875zm35.066406-2.433594-1.964844-9.800781c3.128907-.628906 6.269531-1.382812 9.339844-2.25l2.707031 9.625c-3.3125.933594-6.703125 1.75-10.082031 2.425781zm-57.625-.785156c-3.355469-.769531-6.722656-1.675781-10.011719-2.703125l2.972656-9.546875c3.046876.949219 6.167969 1.789063 9.273438 2.503906zm79.523437-5.554687-3.578124-9.335938c2.976562-1.140625 5.949218-2.414062 8.839843-3.78125l4.277344 9.039062c-3.121094 1.476563-6.332031 2.847657-9.539063 4.078126zm-101.226562-1.382813c-3.175781-1.316406-6.34375-2.773437-9.414062-4.332031l4.523437-8.917969c2.847656 1.441406 5.78125 2.792969 8.722656 4.015625zm121.753906-8.523437-5.078125-8.613282c2.746094-1.621094 5.464844-3.367187 8.085938-5.191406l5.71875 8.203125c-2.828125 1.972656-5.761719 3.855469-8.726563 5.601563zm-141.996094-1.929688c-2.910156-1.828125-5.792968-3.789062-8.5625-5.832031l5.9375-8.046875c2.570313 1.894531 5.242188 3.714844 7.941407 5.40625zm160.597657-11.234375-6.433594-7.65625c2.449219-2.054687 4.84375-4.226563 7.125-6.457031l6.988281 7.152344c-2.457031 2.402343-5.042968 4.746093-7.679687 6.960937zm-178.824219-2.421875c-2.570312-2.277344-5.089844-4.691406-7.492188-7.167969l7.179688-6.957031c2.226562 2.292969 4.5625 4.527344 6.945312 6.640625zm195-13.621094-7.605469-6.496094c2.074219-2.425781 4.082031-4.964843 5.964844-7.539062l8.070313 5.90625c-2.03125 2.777344-4.195313 5.511719-6.429688 8.128906zm-210.738281-2.851562c-2.167969-2.679688-4.257813-5.472656-6.214844-8.300782l8.226563-5.6875c1.816406 2.625 3.753906 5.214844 5.761718 7.699219zm224.054687-15.636719-8.570312-5.152344c1.644531-2.734375 3.203125-5.566406 4.632812-8.414062l8.9375 4.488281c-1.542968 3.074219-3.226562 6.128906-5 9.078125zm-236.871094-3.207031c-1.699218-3-3.296874-6.101563-4.757812-9.21875l9.050781-4.246094c1.355469 2.890625 2.839844 5.765625 4.410157 8.546875zm246.945313-17.226563-9.308594-3.65625c1.167969-2.972656 2.234375-6.019531 3.167969-9.0625l9.558594 2.9375c-1.007813 3.28125-2.160156 6.574219-3.417969 9.78125zm-256.464844-3.492187c-1.171875-3.238282-2.230469-6.5625-3.152343-9.878906l9.636718-2.671876c.851563 3.070313 1.832032 6.148438 2.917969 9.152344zm262.988281-18.339844-9.785156-2.050781c.652344-3.117188 1.195313-6.304688 1.609375-9.46875l9.914063 1.300781c-.449219 3.414062-1.03125 6.851562-1.738282 10.21875zm-268.910156-3.667969c-.617187-3.386719-1.105468-6.839843-1.460937-10.261719l9.949219-1.03125c.328124 3.171876.78125 6.371094 1.351562 9.511719zm-2.179687-22.679687c-.003907-.59375-.007813-1.183594-.007813-1.773438 0-2.867187.089844-5.753906.265625-8.585937l9.980469.621093c-.164062 2.625-.246094 5.308594-.246094 7.964844l.007813 1.652344zm11.472656-21.199219-9.882813-1.527344c.527344-3.402343 1.191407-6.828125 1.96875-10.175781l9.738282 2.269531c-.722656 3.101563-1.335938 6.277344-1.824219 9.433594zm4.957031-20.527344-9.492187-3.152343c1.082031-3.257813 2.304687-6.519532 3.636719-9.695313l9.222656 3.863281c-1.230469 2.941406-2.363282 5.96875-3.367188 8.984375zm8.304688-19.402343-8.832032-4.6875c1.613282-3.035157 3.363282-6.050782 5.203126-8.964844l8.453124 5.34375c-1.707031 2.703125-3.332031 5.496094-4.824218 8.308594zm11.417968-17.765626-7.933593-6.085937c2.097656-2.738281 4.320312-5.421875 6.609375-7.980469l7.457031 6.664063c-2.125 2.371093-4.183594 4.863281-6.132813 7.402343zm14.199219-15.652343-6.828125-7.304688c2.515625-2.351562 5.148438-4.632812 7.832032-6.789062l6.261718 7.796875c-2.488281 2-4.933594 4.117187-7.265625 6.296875zm164.175781-7.839844c-2.527343-1.957031-5.15625-3.835937-7.820312-5.59375l5.507812-8.347656c2.871094 1.894531 5.707032 3.925781 8.429688 6.03125zm-147.597656-5.265625-5.53125-8.332031c2.871094-1.90625 5.847656-3.722657 8.847656-5.40625l4.886719 8.726562c-2.78125 1.558594-5.542969 3.246094-8.203125 5.011719zm129.871094-6.230469c-2.816406-1.503906-5.722656-2.921875-8.640625-4.207031l4.035156-9.152344c3.144531 1.386719 6.285157 2.917969 9.324219 4.542969zm-111.359375-3.953125-4.070313-9.132812c3.148438-1.40625 6.386719-2.707032 9.628907-3.863282l3.371093 9.414063c-3.007812 1.074219-6.011718 2.28125-8.929687 3.582031zm91.96875-4.402344c-3.019531-1.011718-6.121094-1.917968-9.222656-2.699218l2.441406-9.699219c3.34375.84375 6.691406 1.824219 9.953125 2.914063zm-72.023437-2.554687-2.488282-9.6875c3.339844-.855469 6.75-1.59375 10.132813-2.195313l1.746093 9.847657c-3.136718.554687-6.296874 1.242187-9.390624 2.035156zm51.503906-2.441406c-3.148438-.492188-6.359375-.871094-9.546875-1.125l.796875-9.96875c3.4375.277343 6.902344.683593 10.292968 1.214843zm-30.683594-1.085938-.839844-9.964843c3.410156-.285157 6.894532-.449219 10.347656-.484376l.09375 10c-3.203124.03125-6.433593.183594-9.601562.449219zm0 0"/></g></svg>